<svg width="322" height="62" viewBox="0 0 322 62" fill="none" xmlns="http://www.w3.org/2000/svg">
<path d="M0.508076 61.5178V62H322V0H0V62H0.508076V61.5178H1.00947V0.97086H320.984V61.0291H0.508076V61.5178Z" fill="white"/>
<path d="M58.8967 61.5178C58.3352 61.5178 58.3352 61.0356 58.3352 61.0356C57.4394 51.1855 57.1452 41.2969 57.3725 31.4147C57.5664 22.9856 58.0678 14.5758 58.0811 6.14664L57.9341 6.00519H53.4215L53.2745 5.86374V4.48781L53.4215 4.34637H57.9341L58.0811 4.20492V0.623665L58.2282 0.482215H59.5519L59.699 0.623665V4.19206L59.846 4.33351H64.3586L64.5056 4.47496V5.85088L64.3586 5.99233H59.846L59.6923 6.13378C59.7056 14.5629 60.207 22.9727 60.4009 31.4018C60.6282 41.284 60.3341 51.1727 59.4382 61.0227C59.4382 61.0227 59.4382 61.5049 58.8834 61.5049" fill="white"/>
<path d="M66.4042 10.8466C65.3747 15.2316 64.3452 19.7515 64.3184 24.2586C64.285 29.9038 65.8761 34.7966 68.6705 39.7217L68.6906 39.7602L78.1033 59.081C78.2504 59.3896 78.1301 59.7497 77.8226 59.9104C77.5151 60.0711 77.134 59.9747 76.9468 59.6918L65.3546 41.8563C63.5095 39.2973 62.2326 36.5133 61.5842 33.4657C59.973 25.8853 62.4934 17.6041 65.1474 10.493C65.2611 10.178 65.6154 10.0044 65.9496 10.1008C66.2839 10.1908 66.4911 10.5251 66.4109 10.8531" fill="white"/>
<path d="M42.07 13.5727C41.9297 13.277 42.0366 12.9298 42.3308 12.7626C42.6182 12.5955 42.9926 12.6662 43.1999 12.9234C50.714 22.4455 52.158 31.6719 41.1876 39.3037C38.9547 40.8597 36.6617 42.3449 34.3486 43.7916C31.8283 45.3668 29.2812 46.9035 26.7141 48.4208C23.9063 50.0732 21.0852 51.7063 18.2506 53.3201C17.9498 53.4937 17.5554 53.4037 17.3615 53.1208C17.1743 52.8379 17.2412 52.4586 17.5286 52.2593L39.0751 37.1691C41.9163 35.1824 44.6104 32.6942 45.5998 29.3508C46.2684 27.0941 46.0678 24.7666 45.533 22.5034C44.8043 19.4622 43.4405 16.4017 42.0834 13.5792" fill="white"/>
<path d="M46.1012 11.9011C45.9943 11.586 46.1614 11.2517 46.4756 11.1231C46.7898 11.0009 47.1508 11.1231 47.3046 11.4253C49.0762 14.8522 50.7608 18.5106 51.7369 22.2333C52.5391 25.2938 52.86 28.47 52.138 31.5754C51.2221 35.4846 48.8221 38.5901 45.7335 41.1876C42.8455 43.618 39.9241 46.0162 36.9559 48.363C34.5158 50.2918 32.0422 52.1757 29.542 54.0274C28.2116 55.0175 26.8746 55.9948 25.5375 56.9721C25.2634 57.1779 24.8757 57.1393 24.6484 56.8885C24.4278 56.6378 24.4478 56.2649 24.6885 56.027L43.6411 38.1914C45.9207 36.0504 48.0667 33.62 49.0093 30.6367C49.7915 28.1549 49.6578 25.5638 49.2232 23.037C48.9291 21.3589 48.5012 19.6937 48.0399 18.0541C47.4516 15.9903 46.7831 13.9457 46.1012 11.9139" fill="white"/>
<path d="M51.4962 10.8466C51.416 10.5187 51.6232 10.1908 51.9575 10.0944C52.2917 9.99793 52.6461 10.1715 52.7597 10.4866C55.4137 17.5912 57.9341 25.8724 56.3229 33.4593C55.6745 36.5069 54.3976 39.2909 52.5525 41.8434L40.9603 59.6854C40.7731 59.9683 40.3921 60.0711 40.0845 59.904C39.777 59.7432 39.6567 59.3832 39.8038 59.0746L49.2165 39.7538L49.2366 39.7152C52.031 34.7838 53.6221 29.8973 53.5887 24.2522C53.5619 19.7451 52.5324 15.2187 51.5029 10.8402" fill="white"/>
<path d="M75.8371 13.5727C74.48 16.3953 73.1162 19.4622 72.3875 22.4969C71.846 24.7601 71.6521 27.0876 72.3206 29.3444C73.3101 32.6878 76.0042 35.176 78.8454 37.1627L100.392 52.2528C100.673 52.4521 100.746 52.8315 100.552 53.1144C100.358 53.3973 99.964 53.4873 99.6632 53.3137C96.8286 51.6999 94.0075 50.0668 91.1997 48.4144C88.6326 46.9035 86.0855 45.3668 83.5652 43.7851C81.2521 42.3385 78.9591 40.8533 76.7262 39.2973C65.7558 31.6655 67.1998 22.4391 74.7139 12.9169C74.9145 12.6598 75.2889 12.589 75.583 12.7562C75.8705 12.9234 75.9841 13.2706 75.8437 13.5663" fill="white"/>
<path d="M71.7992 11.9011C71.1173 13.9328 70.4488 15.9838 69.8605 18.0413C69.3925 19.6808 68.9714 21.3461 68.6772 23.0242C68.2427 25.551 68.109 28.1421 68.8911 30.6239C69.8337 33.6072 71.9797 36.0375 74.2594 38.1786L93.2119 56.0141C93.4593 56.2456 93.4793 56.6185 93.252 56.8757C93.0247 57.1328 92.637 57.165 92.3629 56.9592C91.0192 55.9884 89.6888 55.0047 88.3585 54.0145C85.8582 52.1564 83.3847 50.2725 80.9446 48.3501C77.9763 46.0033 75.0549 43.6051 72.1669 41.1747C69.0716 38.5772 66.6783 35.4717 65.7624 31.5626C65.0404 28.4571 65.3546 25.2809 66.1569 22.2205C67.1329 18.5042 68.8176 14.8394 70.5892 11.4124C70.7429 11.1167 71.1039 10.9945 71.4181 11.1102C71.7323 11.2388 71.8995 11.5732 71.7925 11.8882" fill="white"/>
<path d="M140.503 49.4817C138.872 50.2661 135.215 51.1019 130.449 51.1019C116.904 51.1019 109.925 42.9943 109.925 32.2634C109.925 19.4043 119.458 12.2418 131.318 12.2418C135.91 12.2418 139.4 13.1355 140.971 13.9199L139.166 20.6838C137.361 19.9573 134.861 19.2886 131.725 19.2886C124.693 19.2886 119.224 23.3714 119.224 31.7555C119.224 39.3037 123.87 44.0552 131.779 44.0552C134.453 44.0552 137.421 43.4958 139.159 42.8271L140.496 49.4817H140.503Z" fill="white"/>
<path d="M161.314 50.5426L160.793 47.8036H160.619C158.76 49.9832 155.852 51.1598 152.483 51.1598C146.727 51.1598 143.298 47.1349 143.298 42.7757C143.298 35.6711 149.929 32.2634 159.984 32.3213V31.9291C159.984 30.476 159.168 28.4057 154.809 28.4057C151.901 28.4057 148.82 29.3573 146.961 30.476L145.33 24.998C147.309 23.9372 151.206 22.5934 156.374 22.5934C165.853 22.5934 168.875 27.962 168.875 34.3916V43.8944C168.875 46.5241 168.989 49.0381 169.283 50.549H161.321L161.314 50.5426ZM160.265 37.6256C155.612 37.5678 152.008 38.6286 152.008 41.9334C152.008 44.113 153.519 45.1739 155.498 45.1739C157.704 45.1739 159.509 43.7787 160.091 42.0427C160.204 41.5927 160.265 41.0912 160.265 40.5897V37.6256Z" fill="white"/>
<path d="M184.98 15.373V23.1978H191.317V29.4601H184.98V39.3552C184.98 42.6535 185.795 44.1645 188.47 44.1645C189.573 44.1645 190.448 44.0552 191.083 43.9394L191.144 50.369C189.98 50.819 187.888 51.0955 185.388 51.0955C182.54 51.0955 180.153 50.1439 178.763 48.7487C177.131 47.1285 176.323 44.4988 176.323 40.6411V29.4601H172.545V23.1978H176.323V17.2697L184.987 15.373H184.98Z" fill="white"/>
<path d="M223.928 36.5648C223.928 46.5755 216.541 51.1598 208.926 51.1598C200.61 51.1598 194.219 45.9069 194.219 37.0663C194.219 28.2257 200.269 22.587 209.394 22.587C218.52 22.587 223.928 28.3478 223.928 36.5648ZM203.344 36.8412C203.344 41.5412 205.376 45.0582 209.16 45.0582C212.59 45.0582 214.796 41.7598 214.796 36.8412C214.796 32.7585 213.165 28.6243 209.16 28.6243C204.915 28.6243 203.344 32.8163 203.344 36.8412ZM218.346 11.2903L211.253 19.7901H205.149L210.15 11.2903H218.346Z" fill="white"/>
<path d="M237.94 10.8466H229.102V50.5426H237.94V10.8466Z" fill="white"/>
<path d="M253.924 15.5981C253.924 17.9448 252.066 19.848 249.158 19.848C246.25 19.848 244.505 17.9448 244.565 15.5981C244.505 13.1355 246.37 11.2903 249.218 11.2903C252.066 11.2903 253.871 13.1355 253.931 15.5981M244.806 23.2042H253.644V50.5426H244.806V23.2042Z" fill="white"/>
<path d="M281.768 49.8739C280.197 50.5426 277.236 51.1019 273.86 51.1019C264.674 51.1019 258.805 45.7333 258.805 37.1241C258.805 29.1258 264.5 22.587 275.083 22.587C277.41 22.587 279.963 22.9792 281.829 23.6478L280.431 29.9681C279.388 29.518 277.817 29.1322 275.491 29.1322C270.845 29.1322 267.816 32.3213 267.877 36.7898C267.877 41.8241 271.366 44.4474 275.665 44.4474C277.757 44.4474 279.388 44.113 280.725 43.6115L281.768 49.8739Z" fill="white"/>
<path d="M302.753 50.5426L302.232 47.8036H302.058C300.199 49.9832 297.291 51.1598 293.922 51.1598C288.166 51.1598 284.737 47.1349 284.737 42.7757C284.737 35.6711 291.362 32.2634 301.423 32.3213V31.9291C301.423 30.476 300.607 28.4057 296.249 28.4057C293.34 28.4057 290.259 29.3573 288.4 30.476L286.776 24.998C288.754 23.9372 292.645 22.5934 297.82 22.5934C307.299 22.5934 310.321 27.962 310.321 34.3916V43.8944C310.321 46.5241 310.435 49.0381 310.729 50.549H302.767L302.753 50.5426ZM301.71 37.6256C297.057 37.5678 293.454 38.6286 293.454 41.9334C293.454 44.113 294.965 45.1739 296.944 45.1739C299.157 45.1739 300.955 43.7787 301.537 42.0427C301.65 41.5927 301.71 41.0912 301.71 40.5897V37.6256Z" fill="white"/>
</svg>
